<?xml version="1.0" standalone="no"?>
<!DOCTYPE svg PUBLIC "-//W3C//DTD SVG 20010904//EN"
 "http://www.w3.org/TR/2001/REC-SVG-20010904/DTD/svg10.dtd">
<svg version="1.0" xmlns="http://www.w3.org/2000/svg"
 width="64.000000pt" height="64.000000pt" viewBox="0 0 64.000000 64.000000"
 preserveAspectRatio="xMidYMid meet">
<metadata>
Created by potrace 1.16, written by Peter Selinger 2001-2019
</metadata>
<g transform="translate(0.000000,64.000000) scale(0.100000,-0.100000)"
fill="#000000" stroke="none">
<path d="M320 633 c-49 -18 -84 -75 -95 -150 -7 -52 -7 -53 -41 -53 -41 0 -54
-21 -54 -85 0 -65 13 -85 55 -85 l35 0 0 -111 c0 -146 2 -149 94 -149 58 0 75
3 80 16 3 9 6 67 6 129 l0 114 48 3 47 3 0 80 0 80 -47 3 c-43 3 -48 5 -48 28
0 21 4 24 39 24 53 0 71 20 71 80 0 79 -1 80 -94 79 -44 0 -88 -3 -96 -6z
m140 -68 c0 -33 -2 -35 -35 -35 -49 0 -75 -29 -75 -83 0 -54 13 -67 67 -67 42
0 43 0 43 -35 0 -35 -1 -35 -43 -35 -24 0 -48 -5 -55 -12 -8 -8 -12 -53 -12
-135 l0 -123 -40 0 -40 0 0 129 c0 141 0 141 -61 141 -26 0 -29 3 -29 34 0 34
1 35 43 38 l42 3 7 68 c3 38 14 80 23 93 21 33 68 53 123 54 41 0 42 0 42 -35z"/>
</g>
</svg>
