<?xml version="1.0" standalone="no"?>
<!DOCTYPE svg PUBLIC "-//W3C//DTD SVG 20010904//EN"
 "http://www.w3.org/TR/2001/REC-SVG-20010904/DTD/svg10.dtd">
<svg version="1.0" xmlns="http://www.w3.org/2000/svg"
 width="64.000000pt" height="64.000000pt" viewBox="0 0 64.000000 64.000000"
 preserveAspectRatio="xMidYMid meet">
<metadata>
Created by potrace 1.16, written by Peter Selinger 2001-2019
</metadata>
<g transform="translate(0.000000,64.000000) scale(0.100000,-0.100000)"
fill="#000000" stroke="none">
<path d="M72 620 c-67 -41 -72 -60 -72 -300 0 -197 2 -218 20 -248 41 -67 60
-72 300 -72 240 0 259 5 300 72 18 30 20 51 20 248 0 197 -2 218 -20 248 -41
67 -60 72 -300 72 -197 0 -218 -2 -248 -20z m474 -74 l34 -34 0 -192 0 -192
-34 -34 -34 -34 -192 0 -192 0 -34 34 -34 34 0 192 0 192 34 34 34 34 192 0
192 0 34 -34z"/>
<path d="M232 460 c-48 -30 -72 -75 -72 -140 0 -100 60 -160 160 -160 100 0
160 60 160 160 0 65 -24 110 -72 140 -45 27 -131 27 -176 0z m154 -74 c25 -24
34 -43 34 -66 0 -23 -9 -41 -34 -66 -46 -46 -86 -46 -132 0 -46 46 -46 86 0
132 46 46 86 46 132 0z"/>
</g>
</svg>
