<?xml version="1.0" standalone="no"?>
<!DOCTYPE svg PUBLIC "-//W3C//DTD SVG 20010904//EN"
 "http://www.w3.org/TR/2001/REC-SVG-20010904/DTD/svg10.dtd">
<svg version="1.0" xmlns="http://www.w3.org/2000/svg"
 width="64.000000pt" height="64.000000pt" viewBox="0 0 64.000000 64.000000"
 preserveAspectRatio="xMidYMid meet">
<metadata>
Created by potrace 1.16, written by Peter Selinger 2001-2019
</metadata>
<g transform="translate(0.000000,64.000000) scale(0.100000,-0.100000)"
fill="#000000" stroke="none">
<path d="M360 563 c-39 -27 -59 -55 -66 -91 -6 -30 -9 -33 -33 -27 -46 11
-106 44 -145 80 -41 37 -57 42 -74 23 -17 -21 -24 -81 -13 -110 6 -17 7 -29 1
-33 -16 -10 -11 -40 15 -89 14 -26 25 -53 25 -61 0 -8 14 -30 31 -49 l30 -35
-33 -5 c-18 -3 -46 -7 -63 -8 -50 -5 -40 -38 20 -68 44 -22 63 -25 160 -25
102 0 114 2 168 29 106 54 175 150 198 273 6 32 20 70 31 85 23 34 35 93 19
102 -6 4 -27 2 -46 -5 -30 -11 -37 -11 -55 6 -31 28 -136 33 -170 8z m145 -53
c17 -11 39 -20 49 -20 17 0 18 -2 4 -17 -9 -10 -19 -43 -23 -73 -10 -78 -46
-152 -100 -204 -61 -60 -132 -86 -233 -86 l-77 0 50 28 c53 29 69 58 38 68
-69 22 -76 27 -59 39 26 19 19 38 -21 60 -40 22 -55 45 -29 45 29 0 30 30 3
58 -14 15 -29 40 -33 56 l-7 29 34 -25 c59 -44 121 -70 181 -75 l58 -6 0 42
c0 85 91 130 165 81z"/>
</g>
</svg>
